<svg xmlns="http://www.w3.org/2000/svg" viewBox="0 0 480 270" shape-rendering="geometricPrecision" role="img" aria-label="Coastal Highway waypoint"><g data-layer="sky"><rect x="0" y="0" width="480" height="270" fill="#F8F0D8"/><rect x="0" y="0" width="480" height="82" fill="#F1C884" opacity="0.72"/><rect x="0" y="82" width="480" height="68" fill="#88BDB1" opacity="0.28"/><circle cx="403" cy="43" r="24" fill="#EF9F27"/><path d="M0 78Q85 54 165 78T330 72T480 76L480 126H0Z" fill="#FFF9E8" stroke="none" stroke-width="0" stroke-linejoin="round" stroke-linecap="round" opacity="0.62"/></g><g data-layer="distant"><path d="M0 154V104Q72 80 140 110Q222 65 296 115Q390 78 480 108V171H0Z" fill="#126B58" stroke="none" stroke-width="0" stroke-linejoin="round" stroke-linecap="round"/><rect x="0" y="142" width="480" height="29" fill="#3B8795"/></g><g data-layer="midground"><rect x="0" y="163" width="480" height="36" fill="#126B58"/><line x1="0" y1="168" x2="40" y2="154" stroke="#FFF9E8" stroke-width="4" stroke-linecap="round"/><rect x="38" y="145" width="6" height="30" fill="#243233"/><line x1="90" y1="168" x2="130" y2="154" stroke="#FFF9E8" stroke-width="4" stroke-linecap="round"/><rect x="128" y="145" width="6" height="30" fill="#243233"/><line x1="180" y1="168" x2="220" y2="154" stroke="#FFF9E8" stroke-width="4" stroke-linecap="round"/><rect x="218" y="145" width="6" height="30" fill="#243233"/><line x1="270" y1="168" x2="310" y2="154" stroke="#FFF9E8" stroke-width="4" stroke-linecap="round"/><rect x="308" y="145" width="6" height="30" fill="#243233"/><line x1="360" y1="168" x2="400" y2="154" stroke="#FFF9E8" stroke-width="4" stroke-linecap="round"/><rect x="398" y="145" width="6" height="30" fill="#243233"/><line x1="450" y1="168" x2="490" y2="154" stroke="#FFF9E8" stroke-width="4" stroke-linecap="round"/><rect x="488" y="145" width="6" height="30" fill="#243233"/></g><g data-layer="foreground"><polygon points="0,270 76,181 404,181 480,270" fill="#243233"/><polygon points="42,270 111,191 369,191 438,270" fill="#D9C49B"/><polygon points="214,205 227,205 233,225 208,225" fill="#FFF9E8"/><polygon points="214,235 227,235 233,255 208,255" fill="#FFF9E8"/><polygon points="254,205 267,205 273,225 248,225" fill="#FFF9E8"/><polygon points="254,235 267,235 273,255 248,255" fill="#FFF9E8"/><polygon points="343,223 391,214 413,238 360,247" fill="#1D9E75" stroke="#243233" stroke-width="4"/><circle cx="365" cy="246" r="10" fill="#243233"/><circle cx="401" cy="239" r="10" fill="#243233"/><rect x="371" y="205" width="20" height="18" fill="#EF9F27" stroke="#243233" stroke-width="3"/><line x1="381" y1="206" x2="419" y2="190" stroke="#243233" stroke-width="5" stroke-linecap="round"/></g></svg>
