<?xml version="1.0" encoding="UTF-8"?>
<svg xmlns="http://www.w3.org/2000/svg" viewBox="0 0 32 48" width="32" height="48" shape-rendering="crispEdges" role="img" aria-labelledby="title desc"><title id="title">The Auditor act 2031 Echo</title><desc id="desc">Original coarse-grid pixel art for Provenance.</desc><g id="echo-fragments"><rect x="1" y="10" width="4" height="2" fill="#69d1ad"/><rect x="27" y="15" width="4" height="3" fill="#e89525"/><rect x="4" y="30" width="6" height="1" fill="#238c69"/><rect x="22" y="35" width="7" height="1" fill="#69d1ad"/><rect x="8" y="7" width="2" height="2" fill="#e89525"/><rect x="25" y="23" width="2" height="2" fill="#69d1ad"/></g><g id="legs"><rect x="16" y="27" width="3" height="11" fill="#292925"/><rect x="17" y="28" width="1" height="8" fill="#536c5e"/><rect x="14" y="39" width="6" height="3" fill="#292925"/><rect x="14" y="27" width="3" height="11" fill="#292925"/><rect x="15" y="28" width="1" height="8" fill="#536c5e"/><rect x="14" y="39" width="7" height="3" fill="#292925"/></g><g id="torso"><rect x="11" y="14" width="11" height="14" fill="#292925"/><rect x="12" y="15" width="9" height="12" fill="#eee8d9"/><rect x="15" y="15" width="2" height="11" fill="#238c69"/><rect x="17" y="15" width="4" height="14" fill="#536c5e"/><rect x="11" y="26" width="4" height="5" fill="#eee8d9"/><rect x="18" y="26" width="4" height="4" fill="#536c5e"/><rect x="13" y="17" width="1" height="9" fill="#e89525"/></g><g id="arm-l"><rect x="4" y="18" width="9" height="3" fill="#292925"/><rect x="5" y="19" width="8" height="1" fill="#eee8d9"/><rect x="3" y="18" width="2" height="3" fill="#b96f4a"/></g><g id="arm-r"><rect x="21" y="17" width="4" height="11" fill="#292925"/><rect x="21" y="18" width="2" height="8" fill="#eee8d9"/></g><g id="head"><rect x="11" y="12" width="3" height="4" fill="#82462f"/><rect x="9" y="4" width="8" height="2" fill="#292925"/><rect x="8" y="6" width="9" height="7" fill="#292925"/><rect x="9" y="6" width="7" height="7" fill="#b96f4a"/><rect x="8" y="8" width="2" height="2" fill="#b96f4a"/><rect x="9" y="9" width="1" height="1" fill="#292925"/><rect x="12" y="11" width="3" height="1" fill="#82462f"/><rect x="9" y="4" width="7" height="2" fill="#2c2022"/><rect x="8" y="6" width="2" height="2" fill="#2c2022"/></g><g id="weapon"><rect x="1" y="15" width="7" height="9" fill="#292925"/><rect x="2" y="16" width="5" height="6" fill="#238c69"/><rect x="3" y="17" width="3" height="1" fill="#fff1bd"/><rect x="1" y="20" width="2" height="2" fill="#e89525"/></g></svg>
