<svg xmlns="http://www.w3.org/2000/svg" viewBox="0 0 320 180" width="320" height="180" shape-rendering="crispEdges" role="img"><title>Meridian Campus, 2148: Sealed vault. Original pixel-art environment. midground transparent layer</title><g id="midground" shape-rendering="crispEdges"><rect x="113" y="88" width="94" height="38" fill="#211C28"/><rect x="120" y="94" width="80" height="27" fill="#4F4743"/><rect x="151" y="94" width="18" height="34" fill="#993C1D"/><rect x="156" y="98" width="8" height="21" fill="#B48445"/><rect x="0" y="121" width="320" height="8" fill="#1E2730"/><rect x="31" y="116" width="44" height="3" fill="#3B6D11"/><rect x="77" y="112" width="23" height="3" fill="#3B6D11"/><rect x="211" y="117" width="62" height="3" fill="#3B6D11"/><rect x="254" y="108" width="42" height="3" fill="#3B6D11"/><path d="M12 94h7v17h8v29h-9v-18H7v-9h5z" fill="#993C1D"/><path d="M292 85h8v24h12v10h-7v31h-9v-23h-12v-9h8z" fill="#3B6D11"/></g></svg>
