<?xml version="1.0" encoding="UTF-8"?>
<svg xmlns="http://www.w3.org/2000/svg" viewBox="0 0 32 40" width="32" height="40" shape-rendering="crispEdges" role="img" aria-labelledby="title desc">
<title id="title">Tomas Hale hit</title><desc id="desc">Original rectangular pixel art generated for Provenance.</desc>
<g id="legs"><rect x="14" y="26" width="4" height="10" fill="#111522"/><rect x="15" y="27" width="2" height="8" fill="#253047"/><rect x="20" y="25" width="5" height="11" fill="#111522"/><rect x="21" y="26" width="3" height="9" fill="#253047"/><rect x="11" y="35" width="7" height="2" fill="#111522"/><rect x="21" y="35" width="7" height="2" fill="#111522"/></g><g id="torso"><rect x="13" y="15" width="11" height="12" fill="#111522"/><rect x="14" y="16" width="9" height="10" fill="#425D36"/><rect x="18" y="16" width="2" height="10" fill="#A14A2E"/><rect x="14" y="24" width="9" height="2" fill="#A7A69A"/><rect x="21" y="15" width="5" height="15" fill="#425D36"/><rect x="23" y="28" width="4" height="3" fill="#111522"/></g><g id="arm-l"><rect x="10" y="18" width="5" height="4" fill="#111522"/><rect x="11" y="19" width="4" height="2" fill="#425D36"/></g><g id="arm-r"><rect x="23" y="13" width="4" height="9" fill="#111522"/><rect x="24" y="14" width="2" height="7" fill="#425D36"/><rect x="25" y="11" width="3" height="4" fill="#9A6548"/></g><g id="head"><rect x="14" y="5" width="8" height="2" fill="#111522"/><rect x="13" y="7" width="9" height="8" fill="#111522"/><rect x="15" y="8" width="5" height="5" fill="#9A6548"/><rect x="15" y="7" width="5" height="2" fill="#2A2728"/><rect x="15" y="10" width="1" height="1" fill="#F6F1E7"/><rect x="20" y="7" width="2" height="7" fill="#425D36"/></g><g id="weapon"><rect x="4" y="9" width="19" height="3" fill="#111522"/><rect x="5" y="10" width="15" height="1" fill="#A7A69A"/><rect x="14" y="12" width="3" height="6" fill="#111522"/></g>
</svg>
