<svg xmlns="http://www.w3.org/2000/svg" viewBox="0 0 320 180" width="320" height="180" shape-rendering="crispEdges" role="img"><title>The Basin, 2148: Wasteland. Original pixel-art environment. Horizontal battle stage; clear combat ground.</title><g id="sky" shape-rendering="crispEdges"><rect x="0" y="0" width="320" height="180" fill="#2D2945"/><circle cx="260" cy="34" r="12" fill="#8179A8"/><rect x="11" y="30" width="54" height="3" fill="#6F6883"/><rect x="53" y="36" width="68" height="3" fill="#6F6883"/><rect x="174" y="24" width="64" height="3" fill="#6F6883"/><rect x="226" y="40" width="79" height="3" fill="#6F6883"/><rect x="7" y="50" width="1" height="7" fill="#888780"/><rect x="26" y="58" width="1" height="7" fill="#888780"/><rect x="45" y="66" width="1" height="7" fill="#888780"/><rect x="64" y="74" width="1" height="7" fill="#888780"/><rect x="83" y="82" width="1" height="7" fill="#888780"/><rect x="102" y="50" width="1" height="7" fill="#888780"/><rect x="121" y="58" width="1" height="7" fill="#888780"/><rect x="140" y="66" width="1" height="7" fill="#888780"/><rect x="159" y="74" width="1" height="7" fill="#888780"/><rect x="178" y="82" width="1" height="7" fill="#888780"/><rect x="197" y="50" width="1" height="7" fill="#888780"/><rect x="216" y="58" width="1" height="7" fill="#888780"/><rect x="235" y="66" width="1" height="7" fill="#888780"/><rect x="254" y="74" width="1" height="7" fill="#888780"/><rect x="273" y="82" width="1" height="7" fill="#888780"/><rect x="292" y="50" width="1" height="7" fill="#888780"/><rect x="311" y="58" width="1" height="7" fill="#888780"/><rect x="10" y="66" width="1" height="7" fill="#888780"/></g><g id="distant" shape-rendering="crispEdges"><polygon points="0,115 54,88 101,110 158,80 210,109 271,86 320,106 320,132 0,132" fill="#993C1D"/><polygon points="0,125 82,104 139,120 218,99 320,119 320,137 0,137" fill="#B48445"/><path d="M37 102h6V72h4v30h15v5H30v-5z" fill="#34281E"/><path d="M270 103h6V65h4v38h15v5h-32v-5z" fill="#34281E"/></g><g id="midground" shape-rendering="crispEdges"><rect x="54" y="94" width="27" height="31" fill="#211C28"/><rect x="59" y="99" width="17" height="17" fill="#888780"/><path d="M54 108h27v6H70v12H64v-12H54z" fill="#3B6D11"/><rect x="94" y="102" width="27" height="31" fill="#211C28"/><rect x="99" y="107" width="17" height="17" fill="#888780"/><path d="M94 116h27v6H110v12H104v-12H94z" fill="#3B6D11"/><rect x="134" y="94" width="27" height="31" fill="#211C28"/><rect x="139" y="99" width="17" height="17" fill="#888780"/><path d="M134 108h27v6H150v12H144v-12H134z" fill="#3B6D11"/><rect x="174" y="102" width="27" height="31" fill="#211C28"/><rect x="179" y="107" width="17" height="17" fill="#888780"/><path d="M174 116h27v6H190v12H184v-12H174z" fill="#3B6D11"/><rect x="214" y="94" width="27" height="31" fill="#211C28"/><rect x="219" y="99" width="17" height="17" fill="#888780"/><path d="M214 108h27v6H230v12H224v-12H214z" fill="#3B6D11"/><rect x="254" y="102" width="27" height="31" fill="#211C28"/><rect x="259" y="107" width="17" height="17" fill="#888780"/><path d="M254 116h27v6H270v12H264v-12H254z" fill="#3B6D11"/></g><g id="foreground" shape-rendering="crispEdges"><rect x="0" y="130" width="320" height="50" fill="#69513D"/><rect x="12" y="151" width="42" height="4" fill="#B48445"/><rect x="84" y="163" width="33" height="3" fill="#B48445"/><rect x="140" y="149" width="42" height="3" fill="#B48445"/><rect x="226" y="166" width="51" height="4" fill="#B48445"/><rect x="285" y="153" width="21" height="3" fill="#B48445"/></g><path d="M22 132H298" stroke="#34281E" stroke-width="1" opacity=".65"/><rect x="28" y="159" width="29" height="2" fill="#888780" opacity=".45"/><rect x="80" y="159" width="29" height="2" fill="#888780" opacity=".45"/><rect x="132" y="159" width="29" height="2" fill="#888780" opacity=".45"/><rect x="184" y="159" width="29" height="2" fill="#888780" opacity=".45"/><rect x="236" y="159" width="29" height="2" fill="#888780" opacity=".45"/><rect x="288" y="159" width="29" height="2" fill="#888780" opacity=".45"/><g opacity=".62"><rect x="12" y="121" width="18" height="3" fill="#B48445"/><rect x="290" y="121" width="18" height="3" fill="#B48445"/><rect x="15" y="125" width="2" height="12" fill="#B48445"/><rect x="303" y="125" width="2" height="12" fill="#B48445"/></g><g opacity=".62"><rect x="7" y="7" width="40" height="2" fill="#B48445"/><rect x="7" y="12" width="24" height="2" fill="#B48445"/><rect x="274" y="7" width="39" height="2" fill="#34281E"/><rect x="290" y="12" width="23" height="2" fill="#34281E"/></g><path d="M8 40h13v2H10v7H6V36h2z" fill="#993C1D"/><path d="M312 42h-12v2h10v8h4V38h-2z" fill="#3B6D11"/></svg>
