<?xml version="1.0" encoding="UTF-8"?>
<svg xmlns="http://www.w3.org/2000/svg" viewBox="0 0 32 48" width="32" height="48" shape-rendering="crispEdges" role="img" aria-labelledby="title desc"><title id="title">Dax Okonkwo hit 2312 Echo</title><desc id="desc">Original coarse-grid pixel art for Provenance.</desc><g id="echo-fragments"><rect x="1" y="10" width="4" height="2" fill="#a8edf5"/><rect x="27" y="15" width="4" height="3" fill="#9670cf"/><rect x="4" y="30" width="6" height="1" fill="#4ac7d9"/><rect x="22" y="35" width="7" height="1" fill="#a8edf5"/><rect x="8" y="7" width="2" height="2" fill="#9670cf"/><rect x="25" y="23" width="2" height="2" fill="#a8edf5"/></g><g id="legs"><rect x="15" y="28" width="3" height="11" fill="#10232b"/><rect x="16" y="29" width="1" height="8" fill="#66878f"/><rect x="13" y="39" width="6" height="3" fill="#10232b"/><rect x="25" y="28" width="3" height="11" fill="#10232b"/><rect x="26" y="29" width="1" height="8" fill="#66878f"/><rect x="25" y="39" width="7" height="3" fill="#10232b"/></g><g id="torso"><rect x="15" y="15" width="13" height="14" fill="#10232b"/><rect x="16" y="16" width="11" height="12" fill="#ebe9df"/><rect x="19" y="16" width="2" height="11" fill="#4ac7d9"/><rect x="15" y="18" width="13" height="4" fill="#66878f"/><rect x="20" y="22" width="3" height="5" fill="#9670cf"/><rect x="14" y="16" width="3" height="5" fill="#4ac7d9"/></g><g id="arm-l"><rect x="11" y="11" width="4" height="10" fill="#10232b"/><rect x="12" y="12" width="2" height="7" fill="#ebe9df"/><rect x="11" y="9" width="3" height="3" fill="#71402d"/><rect x="11" y="18" width="5" height="8" fill="#71402d"/><rect x="12" y="20" width="3" height="2" fill="#49271e"/></g><g id="arm-r"><rect x="27" y="12" width="4" height="9" fill="#10232b"/><rect x="28" y="13" width="2" height="6" fill="#ebe9df"/><rect x="28" y="10" width="3" height="3" fill="#71402d"/><rect x="27" y="18" width="5" height="8" fill="#71402d"/><rect x="28" y="20" width="3" height="2" fill="#49271e"/></g><g id="head"><rect x="18" y="13" width="3" height="4" fill="#49271e"/><rect x="16" y="5" width="8" height="2" fill="#10232b"/><rect x="15" y="7" width="9" height="7" fill="#10232b"/><rect x="16" y="7" width="7" height="7" fill="#71402d"/><rect x="15" y="9" width="2" height="2" fill="#71402d"/><rect x="16" y="10" width="1" height="1" fill="#10232b"/><rect x="19" y="12" width="3" height="1" fill="#49271e"/><rect x="16" y="5" width="7" height="2" fill="#171316"/><rect x="17" y="4" width="2" height="2" fill="#171316"/><rect x="20" y="4" width="2" height="2" fill="#171316"/><rect x="22" y="6" width="1" height="2" fill="#171316"/><rect x="15" y="9" width="2" height="1" fill="#ffffff"/></g><g id="weapon"></g></svg>
