<svg xmlns="http://www.w3.org/2000/svg" width="640" height="360" viewBox="0 0 640 360" role="img" aria-label="Port Halden, 2312: Enclave 7. Rich illustrated Deep Site environment. distant transparent layer."><title>Port Halden, 2312: Enclave 7. Rich illustrated Deep Site environment. distant transparent layer.</title><g id="distant"><rect x="0" y="205" width="640" height="44" fill="#174F63"/><rect x="13" y="124" width="63" height="121" fill="#102B42"/><rect x="94" y="138" width="63" height="107" fill="#102B42"/><rect x="175" y="124" width="63" height="121" fill="#102B42"/><rect x="256" y="138" width="63" height="107" fill="#102B42"/><rect x="337" y="124" width="63" height="121" fill="#102B42"/><rect x="418" y="138" width="63" height="107" fill="#102B42"/><rect x="499" y="124" width="63" height="121" fill="#102B42"/><rect x="580" y="138" width="63" height="107" fill="#102B42"/><rect x="22" y="140" width="11" height="10" rx="2" fill="#8DE5D8"/><rect x="46" y="140" width="11" height="10" rx="2" fill="#8DE5D8"/><rect x="22" y="163" width="11" height="10" rx="2" fill="#8DE5D8"/><rect x="46" y="163" width="11" height="10" rx="2" fill="#8DE5D8"/><rect x="22" y="186" width="11" height="10" rx="2" fill="#8DE5D8"/><rect x="46" y="186" width="11" height="10" rx="2" fill="#8DE5D8"/><rect x="103" y="154" width="11" height="10" rx="2" fill="#8DE5D8"/><rect x="127" y="154" width="11" height="10" rx="2" fill="#8DE5D8"/><rect x="103" y="177" width="11" height="10" rx="2" fill="#8DE5D8"/><rect x="127" y="177" width="11" height="10" rx="2" fill="#8DE5D8"/><rect x="103" y="200" width="11" height="10" rx="2" fill="#8DE5D8"/><rect x="127" y="200" width="11" height="10" rx="2" fill="#8DE5D8"/><rect x="184" y="140" width="11" height="10" rx="2" fill="#8DE5D8"/><rect x="208" y="140" width="11" height="10" rx="2" fill="#8DE5D8"/><rect x="184" y="163" width="11" height="10" rx="2" fill="#8DE5D8"/><rect x="208" y="163" width="11" height="10" rx="2" fill="#8DE5D8"/><rect x="184" y="186" width="11" height="10" rx="2" fill="#8DE5D8"/><rect x="208" y="186" width="11" height="10" rx="2" fill="#8DE5D8"/><rect x="265" y="154" width="11" height="10" rx="2" fill="#8DE5D8"/><rect x="289" y="154" width="11" height="10" rx="2" fill="#8DE5D8"/><rect x="265" y="177" width="11" height="10" rx="2" fill="#8DE5D8"/><rect x="289" y="177" width="11" height="10" rx="2" fill="#8DE5D8"/><rect x="265" y="200" width="11" height="10" rx="2" fill="#8DE5D8"/><rect x="289" y="200" width="11" height="10" rx="2" fill="#8DE5D8"/><rect x="346" y="140" width="11" height="10" rx="2" fill="#8DE5D8"/><rect x="370" y="140" width="11" height="10" rx="2" fill="#8DE5D8"/><rect x="346" y="163" width="11" height="10" rx="2" fill="#8DE5D8"/><rect x="370" y="163" width="11" height="10" rx="2" fill="#8DE5D8"/><rect x="346" y="186" width="11" height="10" rx="2" fill="#8DE5D8"/><rect x="370" y="186" width="11" height="10" rx="2" fill="#8DE5D8"/><rect x="427" y="154" width="11" height="10" rx="2" fill="#8DE5D8"/><rect x="451" y="154" width="11" height="10" rx="2" fill="#8DE5D8"/><rect x="427" y="177" width="11" height="10" rx="2" fill="#8DE5D8"/><rect x="451" y="177" width="11" height="10" rx="2" fill="#8DE5D8"/><rect x="427" y="200" width="11" height="10" rx="2" fill="#8DE5D8"/><rect x="451" y="200" width="11" height="10" rx="2" fill="#8DE5D8"/><rect x="508" y="140" width="11" height="10" rx="2" fill="#8DE5D8"/><rect x="532" y="140" width="11" height="10" rx="2" fill="#8DE5D8"/><rect x="508" y="163" width="11" height="10" rx="2" fill="#8DE5D8"/><rect x="532" y="163" width="11" height="10" rx="2" fill="#8DE5D8"/><rect x="508" y="186" width="11" height="10" rx="2" fill="#8DE5D8"/><rect x="532" y="186" width="11" height="10" rx="2" fill="#8DE5D8"/><rect x="589" y="154" width="11" height="10" rx="2" fill="#8DE5D8"/><rect x="613" y="154" width="11" height="10" rx="2" fill="#8DE5D8"/><rect x="589" y="177" width="11" height="10" rx="2" fill="#8DE5D8"/><rect x="613" y="177" width="11" height="10" rx="2" fill="#8DE5D8"/><rect x="589" y="200" width="11" height="10" rx="2" fill="#8DE5D8"/><rect x="613" y="200" width="11" height="10" rx="2" fill="#8DE5D8"/></g></svg>
