<?xml version="1.0" encoding="UTF-8"?>
<svg xmlns="http://www.w3.org/2000/svg" viewBox="0 0 32 48" width="32" height="48" shape-rendering="crispEdges" role="img" aria-labelledby="title desc"><title id="title">Mara Vesely hit 2312 Echo</title><desc id="desc">Original coarse-grid pixel art for Provenance.</desc><g id="echo-fragments"><rect x="1" y="10" width="4" height="2" fill="#a8edf5"/><rect x="27" y="15" width="4" height="3" fill="#9670cf"/><rect x="4" y="30" width="6" height="1" fill="#4ac7d9"/><rect x="22" y="35" width="7" height="1" fill="#a8edf5"/><rect x="8" y="7" width="2" height="2" fill="#9670cf"/><rect x="25" y="23" width="2" height="2" fill="#a8edf5"/></g><g id="legs"><rect x="15" y="28" width="3" height="11" fill="#10232b"/><rect x="16" y="29" width="1" height="8" fill="#66878f"/><rect x="13" y="39" width="6" height="3" fill="#10232b"/><rect x="22" y="28" width="3" height="11" fill="#10232b"/><rect x="23" y="29" width="1" height="8" fill="#66878f"/><rect x="22" y="39" width="7" height="3" fill="#10232b"/></g><g id="torso"><rect x="15" y="15" width="10" height="14" fill="#10232b"/><rect x="16" y="16" width="8" height="12" fill="#ebe9df"/><rect x="19" y="16" width="2" height="11" fill="#4ac7d9"/><rect x="15" y="27" width="3" height="6" fill="#ebe9df"/><rect x="22" y="27" width="3" height="6" fill="#ebe9df"/><rect x="20" y="17" width="1" height="8" fill="#9670cf"/></g><g id="arm-l"><rect x="11" y="11" width="4" height="10" fill="#10232b"/><rect x="12" y="12" width="2" height="7" fill="#ebe9df"/><rect x="11" y="9" width="3" height="3" fill="#dda07a"/></g><g id="arm-r"><rect x="24" y="12" width="4" height="9" fill="#10232b"/><rect x="25" y="13" width="2" height="6" fill="#ebe9df"/><rect x="25" y="10" width="3" height="3" fill="#dda07a"/></g><g id="head"><rect x="18" y="13" width="3" height="4" fill="#a86a50"/><rect x="16" y="5" width="8" height="2" fill="#10232b"/><rect x="15" y="7" width="9" height="7" fill="#10232b"/><rect x="16" y="7" width="7" height="7" fill="#dda07a"/><rect x="15" y="9" width="2" height="2" fill="#dda07a"/><rect x="16" y="10" width="1" height="1" fill="#10232b"/><rect x="19" y="12" width="3" height="1" fill="#a86a50"/><rect x="16" y="5" width="7" height="2" fill="#7a2944"/><rect x="15" y="7" width="2" height="7" fill="#7a2944"/><rect x="22" y="7" width="2" height="8" fill="#7a2944"/><rect x="16" y="13" width="2" height="2" fill="#7a2944"/><rect x="15" y="9" width="2" height="1" fill="#ffffff"/></g><g id="weapon"></g></svg>
