<svg xmlns="http://www.w3.org/2000/svg" viewBox="0 0 320 180" width="320" height="180" shape-rendering="crispEdges" role="img"><title>Capitol Hill, 2312: Continuity Board seat. Original pixel-art environment. midground transparent layer</title><g id="midground" shape-rendering="crispEdges"><rect x="81" y="90" width="158" height="36" fill="#F1EFE8"/><rect x="91" y="94" width="14" height="27" fill="#FFFFFF"/><rect x="96" y="98" width="4" height="18" fill="#4FD1E6"/><rect x="114" y="94" width="14" height="27" fill="#FFFFFF"/><rect x="119" y="98" width="4" height="18" fill="#4FD1E6"/><rect x="137" y="94" width="14" height="27" fill="#FFFFFF"/><rect x="142" y="98" width="4" height="18" fill="#4FD1E6"/><rect x="160" y="94" width="14" height="27" fill="#FFFFFF"/><rect x="165" y="98" width="4" height="18" fill="#4FD1E6"/><rect x="183" y="94" width="14" height="27" fill="#FFFFFF"/><rect x="188" y="98" width="4" height="18" fill="#4FD1E6"/><rect x="206" y="94" width="14" height="27" fill="#FFFFFF"/><rect x="211" y="98" width="4" height="18" fill="#4FD1E6"/><rect x="229" y="94" width="14" height="27" fill="#FFFFFF"/><rect x="234" y="98" width="4" height="18" fill="#4FD1E6"/><rect x="72" y="121" width="176" height="6" fill="#718B94"/><circle cx="160" cy="99" r="15" fill="#4FD1E6"/><circle cx="160" cy="99" r="8" fill="#FFFFFF"/></g></svg>
