<?xml version="1.0" encoding="UTF-8"?>
<svg xmlns="http://www.w3.org/2000/svg" viewBox="0 0 32 32" width="32" height="32" shape-rendering="crispEdges" role="img" aria-labelledby="title desc"><title id="title">Field Engineer portrait</title><desc id="desc">Original coarse-grid pixel art for Provenance.</desc><g id="shoulders"><rect x="5" y="24" width="22" height="8" fill="#11131c"/><rect x="7" y="25" width="18" height="7" fill="#315e66"/><rect x="14" y="24" width="4" height="8" fill="#1d9e75"/><rect x="27" y="12" width="3" height="20" fill="#ef9f27"/><rect x="24" y="9" width="3" height="6" fill="#ef9f27"/><rect x="30" y="9" width="2" height="6" fill="#ef9f27"/></g><g id="head"><rect x="9" y="6" width="14" height="13" fill="#11131c"/><rect x="8" y="9" width="16" height="8" fill="#11131c"/><rect x="10" y="7" width="12" height="11" fill="#86583d"/><rect x="11" y="18" width="10" height="3" fill="#593725"/><rect x="9" y="11" width="2" height="3" fill="#86583d"/><rect x="21" y="11" width="2" height="3" fill="#86583d"/><rect x="11" y="12" width="2" height="1" fill="#11131c"/><rect x="19" y="12" width="2" height="1" fill="#11131c"/><rect x="15" y="14" width="2" height="2" fill="#593725"/><rect x="14" y="18" width="5" height="1" fill="#11131c"/><rect x="8" y="5" width="14" height="4" fill="#17191b"/><rect x="16" y="1" width="8" height="6" fill="#17191b"/><rect x="6" y="9" width="4" height="6" fill="#17191b"/></g></svg>
